<?xml version="1.0" encoding="UTF-8" standalone="no"?>
<!-- Created with Inkscape (http://www.inkscape.org/) -->

<svg
   width="512"
   height="512"
   viewBox="0 0 135.46666 135.46667"
   version="1.1"
   id="svg1"
   xmlns="http://www.w3.org/2000/svg"
   xmlns:svg="http://www.w3.org/2000/svg">
  <defs
     id="defs1">
    <clipPath
       clipPathUnits="userSpaceOnUse"
       id="clipPath5">
      <path
         style="display:none;fill:#0000ff;stroke-width:0.222973"
         id="path5"
         d="M 49.035271,28.669817 A 20.7609,20.563177 0 0 1 28.423513,49.232463 20.7609,20.563177 0 0 1 7.5156125,28.965254 20.7609,20.563177 0 0 1 27.826972,8.1114152 20.7609,20.563177 0 0 1 49.0267,28.079003 Z" />
      <path
         id="lpe_path-effect7"
         style="fill:#0000ff;stroke-width:0.222973"
         class="powerclip"
         d="M 2.5134697,3.1066399 H 54.035271 V 54.232994 H 2.5134697 Z M 49.035271,28.669817 49.0267,28.079003 A 20.7609,20.563177 0 0 0 27.826972,8.1114152 20.7609,20.563177 0 0 0 7.5156125,28.965254 20.7609,20.563177 0 0 0 28.423513,49.232463 20.7609,20.563177 0 0 0 49.035271,28.669817 Z" />
    </clipPath>
    <clipPath
       clipPathUnits="userSpaceOnUse"
       id="clipPath6">
      <path
         style="display:none;fill:#0000ff;stroke-width:0.222973"
         id="path6"
         d="M 49.035271,28.669817 A 20.7609,20.563177 0 0 1 28.423513,49.232463 20.7609,20.563177 0 0 1 7.5156125,28.965254 20.7609,20.563177 0 0 1 27.826972,8.1114152 20.7609,20.563177 0 0 1 49.0267,28.079003 Z" />
      <path
         id="lpe_path-effect8"
         style="fill:#0000ff;stroke-width:0.222973"
         class="powerclip"
         d="M -1.2432652,-0.84781837 H 57.792006 V 58.187452 H -1.2432652 Z M 49.035271,28.669817 49.0267,28.079003 A 20.7609,20.563177 0 0 0 27.826972,8.1114152 20.7609,20.563177 0 0 0 7.5156125,28.965254 20.7609,20.563177 0 0 0 28.423513,49.232463 20.7609,20.563177 0 0 0 49.035271,28.669817 Z" />
    </clipPath>
    <clipPath
       clipPathUnits="userSpaceOnUse"
       id="clipPath7">
      <path
         style="display:none;fill:#0000ff;stroke-width:0.222973"
         id="path7"
         d="M 49.035271,28.669817 A 20.7609,20.563177 0 0 1 28.423513,49.232463 20.7609,20.563177 0 0 1 7.5156125,28.965254 20.7609,20.563177 0 0 1 27.826972,8.1114152 20.7609,20.563177 0 0 1 49.0267,28.079003 Z" />
      <path
         id="lpe_path-effect9"
         style="fill:#0000ff;stroke-width:0.222973"
         class="powerclip"
         d="M -1.2432652,-0.84781837 H 57.792006 V 58.187452 H -1.2432652 Z M 49.035271,28.669817 49.0267,28.079003 A 20.7609,20.563177 0 0 0 27.826972,8.1114152 20.7609,20.563177 0 0 0 7.5156125,28.965254 20.7609,20.563177 0 0 0 28.423513,49.232463 20.7609,20.563177 0 0 0 49.035271,28.669817 Z" />
    </clipPath>
    <clipPath
       clipPathUnits="userSpaceOnUse"
       id="clipPath16">
      <path
         style="display:none;fill:#008080;stroke-width:0.158155"
         id="path16"
         d="m 52.823839,98.322769 a 10.80773,8.9013147 0 0 1 -5.406165,7.709861 10.80773,8.9013147 0 0 1 -10.810028,-0.003 10.80773,8.9013147 0 0 1 -5.399263,-7.713142" />
      <path
         id="lpe_path-effect16"
         style="fill:#008080;stroke-width:0.158155"
         class="powerclip"
         d="M 21.890309,93.653369 H 62.14191 V 116.12026 H 21.890309 Z m 9.318074,4.662839 a 10.80773,8.9013147 0 0 0 5.399263,7.713142 10.80773,8.9013147 0 0 0 10.810028,0.003 10.80773,8.9013147 0 0 0 5.406165,-7.709861" />
    </clipPath>
  </defs>
  <g
     id="layer1">
    <path
       style="fill:#ff0000;stroke-width:0.264583"
       id="path1"
       d="M 52.792006,28.669817 A 24.517635,24.517635 0 0 1 28.450501,53.18682 24.517635,24.517635 0 0 1 3.7592654,29.022069 24.517635,24.517635 0 0 1 27.746014,4.1578753 24.517635,24.517635 0 0 1 52.781884,27.965385 Z"
       clip-path="url(#clipPath7)"
       transform="matrix(1.5775706,0,0,1.5775706,-2.5652256,-3.7561374)" />
    <path
       style="fill:#ff0000;stroke-width:0.264583"
       id="path2"
       d="M 52.792006,28.669817 A 24.517635,24.517635 0 0 1 28.450501,53.18682 24.517635,24.517635 0 0 1 3.7592654,29.022069 24.517635,24.517635 0 0 1 27.746014,4.1578753 24.517635,24.517635 0 0 1 52.781884,27.965385 Z"
       clip-path="url(#clipPath6)"
       transform="matrix(1.5775706,0,0,1.5775706,-2.5652256,-3.7561374)" />
    <path
       style="fill:#ff0000;stroke-width:0.222973"
       id="path3"
       d="M 49.035271,28.669817 A 20.7609,20.563177 0 0 1 28.423513,49.232463 20.7609,20.563177 0 0 1 7.5156125,28.965254 20.7609,20.563177 0 0 1 27.826972,8.1114152 20.7609,20.563177 0 0 1 49.0267,28.079003 Z"
       clip-path="url(#clipPath5)"
       transform="matrix(1.5775706,0,0,1.5775706,-2.5652256,-3.7561374)" />
    <rect
       style="fill:#ff0000;stroke-width:0.417398"
       id="rect9"
       width="10.917263"
       height="93.888458"
       x="-0.73810041"
       y="91.885727"
       rx="20.732031"
       ry="7.6219239"
       transform="rotate(-42.217206)" />
    <path
       style="fill:#d4ff2a;stroke-width:0.417398"
       id="path9"
       d="M 38.608448,28.683731 A 10.293419,10.293419 0 0 1 28.388975,38.976884 10.293419,10.293419 0 0 1 18.022673,28.83162 10.293419,10.293419 0 0 1 28.093206,18.392703 10.293419,10.293419 0 0 1 38.604199,28.387984 Z" />
    <path
       style="fill:#000080;stroke-width:0.417398"
       id="path10"
       d="m 32.681935,29.151608 a 4.2109442,4.2109442 0 0 1 -4.180693,4.210835 4.2109442,4.2109442 0 0 1 -4.24076,-4.150336 4.2109442,4.2109442 0 0 1 4.119763,-4.270466 4.2109442,4.2109442 0 0 1 4.299952,4.088979 z" />
    <path
       style="fill:#d4ff2a;stroke-width:0.417398"
       id="path11"
       d="M 67.617176,28.371809 A 10.293419,10.293419 0 0 1 57.397703,38.664962 10.293419,10.293419 0 0 1 47.031401,28.519698 10.293419,10.293419 0 0 1 57.101934,18.080781 10.293419,10.293419 0 0 1 67.612927,28.076062 Z" />
    <path
       style="fill:#000080;stroke-width:0.417398"
       id="path12"
       d="m 61.690661,28.839685 a 4.2109442,4.2109442 0 0 1 -4.180693,4.210836 4.2109442,4.2109442 0 0 1 -4.24076,-4.150336 4.2109442,4.2109442 0 0 1 4.119763,-4.270466 4.2109442,4.2109442 0 0 1 4.299952,4.088979 z" />
    <path
       style="fill:#00ff00;stroke-width:0.221344"
       id="path13"
       d="m 57.14191,98.662552 a 15.1258,12.457705 0 0 1 -7.566119,10.790218 15.1258,12.457705 0 0 1 -15.129018,-0.005 15.1258,12.457705 0 0 1 -7.55646,-10.794811"
       clip-path="url(#clipPath16)"
       transform="matrix(1.5775706,0,0,1.5775706,-25.335515,-110.43339)" />
  </g>
</svg>
